<svg width="24" height="24" viewBox="0 0 24 24" fill="none" xmlns="http://www.w3.org/2000/svg">
    <g clip-path="url(#clip0_222_12113)">
        <path
            d="M9.1419 21.2241C7.46635 20.7252 5.9749 19.7991 4.79393 18.5719C5.2345 18.0498 5.5 17.3751 5.5 16.6385C5.5 14.9816 4.15685 13.6385 2.5 13.6385C2.39977 13.6385 2.3007 13.6434 2.203 13.653C2.0699 13.0023 2 12.3286 2 11.6385C2 10.5932 2.16039 9.58533 2.4579 8.63818C2.47191 8.63838 2.48594 8.63848 2.5 8.63848C4.15685 8.63848 5.5 7.29533 5.5 5.63848C5.5 5.16283 5.3893 4.71308 5.1923 4.31349C6.34875 3.23818 7.76025 2.43344 9.32605 2C9.8222 2.97253 10.8333 3.63849 12 3.63849C13.1667 3.63849 14.1778 2.97253 14.674 2C16.2398 2.43344 17.6512 3.23818 18.8077 4.31349C18.6107 4.71308 18.5 5.16283 18.5 5.63848C18.5 7.29533 19.8432 8.63848 21.5 8.63848C21.5141 8.63848 21.5281 8.63838 21.5421 8.63818C21.8396 9.58533 22 10.5932 22 11.6385C22 12.3286 21.9301 13.0023 21.797 13.653C21.6993 13.6434 21.6002 13.6385 21.5 13.6385C19.8432 13.6385 18.5 14.9816 18.5 16.6385C18.5 17.3751 18.7655 18.0498 19.2061 18.5719C18.0251 19.7991 16.5336 20.7252 14.8581 21.2241C14.4714 20.0144 13.338 19.1385 12 19.1385C10.662 19.1385 9.5286 20.0144 9.1419 21.2241Z"
            stroke="#1B1A1E" stroke-width="1.5" stroke-linejoin="round" />
        <path
            d="M12 15.1387C13.933 15.1387 15.5 13.5717 15.5 11.6387C15.5 9.70567 13.933 8.13867 12 8.13867C10.067 8.13867 8.5 9.70567 8.5 11.6387C8.5 13.5717 10.067 15.1387 12 15.1387Z"
            stroke="#1B1A1E" stroke-width="1.5" stroke-linejoin="round" />
    </g>
    <defs>
        <clipPath id="clip0_222_12113">
            <rect width="24" height="24" fill="white" />
        </clipPath>
    </defs>

</svg>
